<mxfile host="app.diagrams.net" modified="2023-10-05T16:51:09.768Z" agent="Mozilla/5.0 (Macintosh; Intel Mac OS X 10_15_7) AppleWebKit/537.36 (KHTML, like Gecko) Chrome/115.0.0.0 Safari/537.36" version="22.0.2" etag="v-g7mjlyj2ovuERAbRXm" type="github">
  <diagram name="Page-1" id="SqlhpCL8GmLEKj1u9zYD">
    <mxGraphModel>
      <root>
        <mxCell id="0" />
        <mxCell id="1" parent="0" />
      </root>
    </mxGraphModel>
  </diagram>
</mxfile>
